# xmcd CD database file generated by OrangeCD 5.2
#
# Track frame offsets:
#	150
#	13545
#	23037
#	46500
#	68880
#	82297
#	98402
#	116027
#	126437
#	149120
#	169117
#	190902
#
# Disc length: 2930 seconds
#
# Revision: 5
# Processed by: cddbd v1.5.1PL0 Copyright (c) Steve Scherf et al.
# Submitted via: OrangeCD 5.2
#
DISCID=a30b700c
DTITLE=Big Town Playboys - Off The Clock [CD1]
DYEAR=1997
DGENRE=Blues
TTITLE0=Deep In The Heart Of Texas
TTITLE1=Lights Out
TTITLE2=Roomin' House Boogie
TTITLE3=Don't Lie To Me
TTITLE4=It'll Be Me
TTITLE5=Found What I'm Looking For
TTITLE6=King Bee
TTITLE7=Bop Sit-In Blues
TTITLE8=Rock Me Again
TTITLE9=Something You Got
TTITLE10=Glamour Girl
TTITLE11=In The Middle Of The Night
EXTD=
EXTT0=
EXTT1=
EXTT2=
EXTT3=
EXTT4=
EXTT5=
EXTT6=
EXTT7=
EXTT8=
EXTT9=
EXTT10=
EXTT11=
PLAYORDER=
